#!OML:ASF H:\Dans Jumps\Project 1\Capture day 1\Session 1\subject.ASF
:FULLY-SPECIFIED
:DEGREES
498
root 0.48986 17.6552 5.32201 6.93565 2.31233 -1.84707
lowerback 1.07811 -0.286339 -0.184763
upperback 2.29685 -0.409057 2.02667
thorax 1.76603 -0.227114 2.18067
lowerneck -14.9329 -0.239927 -1.88292
upperneck 8.00618 -0.0606609 1.00618
head 4.82819 -0.0215182 0.612255
rclavicle 4.87022e-015 -2.14687e-014
rhumerus -22.3585 -19.6277 -80.21
rradius 20.1633
rwrist 36.8941
rhand -21.1123 -26.8216
rfingers 7.12502
rthumb 5.26589 -56.7362
lclavicle 4.87022e-015 -2.14687e-014
lhumerus -22.7537 10.3806 86.3394
lradius 9.3269
lwrist -15.3697
lhand -24.2307 -2.50951
lfingers 7.12502
lthumb 2.25455 27.4583
rfemur -18.1427 -0.805305 20.995
rtibia 24.4138
rfoot -11.667 -4.79496
rtoes 10.9959
lfemur -18.9506 4.36371 -18.0194
ltibia 23.1851
lfoot -9.68071 2.52754
ltoes -2.43845
499
root 0.487204 17.6576 5.33076 6.94649 2.37016 -1.83054
lowerback 1.02526 -0.291664 -0.198872
upperback 2.27726 -0.416211 2.01872
thorax 1.77588 -0.230794 2.18014
lowerneck -14.9817 -0.243879 -1.89392
upperneck 7.87951 -0.059631 0.981951
head 4.79652 -0.0224779 0.606361
rclavicle -8.89561e-015 -1.11319e-014
rhumerus -22.1981 -19.7235 -80.2794
rradius 20.1349
rwrist 37.0162
rhand -21.0715 -26.8142
rfingers 7.12502
rthumb 5.30535 -56.7278
lclavicle -8.89561e-015 -1.11319e-014
lhumerus -22.6553 10.5498 86.1812
lradius 9.32766
lwrist -15.5029
lhand -24.3596 -2.67693
lfingers 7.12502
lthumb 2.13007 27.2922
rfemur -18.0795 -0.849918 20.9895
rtibia 24.3487
rfoot -11.682 -4.82019
rtoes 10.9811
lfemur -18.8869 4.32091 -18.0229
ltibia 23.093
lfoot -9.67794 2.51954
ltoes -2.45524
500
root 0.484571 17.66 5.33893 6.96228 2.4253 -1.80837
lowerback 0.971998 -0.296737 -0.220782
upperback 2.25493 -0.422974 2.01166
thorax 1.78322 -0.234392 2.18491
lowerneck -15.0233 -0.244401 -1.9126
upperneck 7.75969 -0.053419 0.964339
head 4.76576 -0.0207033 0.604213
rclavicle 3.8763e-015 -2.3059e-014
rhumerus -22.0381 -19.8261 -80.3481
rradius 20.1046
rwrist 37.1464
rhand -21.0633 -26.7926
rfingers 7.12502
rthumb 5.31322 -56.706
lclavicle 3.8763e-015 -2.3059e-014
lhumerus -22.5499 10.7235 86.0292
lradius 9.35927
lwrist -15.6046
lhand -24.584 -3.01025
lfingers 7.12502
lthumb 1.91336 26.9609
rfemur -18.0279 -0.895777 20.9779
rtibia 24.2914
rfoot -11.6969 -4.83972
rtoes 10.9755
lfemur -18.8296 4.27083 -18.0322
ltibia 22.9989
lfoot -9.6696 2.5162
ltoes -2.47315
501
root 0.481733 17.6621 5.34625 6.98215 2.47752 -1.78905
lowerback 0.9214 -0.300604 -0.244153
upperback 2.23123 -0.4281 2.00757
thorax 1.78762 -0.2372 2.19357
lowerneck -15.0665 -0.240673 -1.93838
upperneck 7.64536 -0.0411989 0.956412
head 4.73688 -0.0155363 0.606741
rclavicle 1.36664e-014 8.34896e-015
rhumerus -21.8726 -19.9274 -80.4211
rradius 20.0745
rwrist 37.2728
rhand -21.0591 -26.7757
rfingers 7.12502
rthumb 5.31726 -56.689
lclavicle 1.36664e-014 8.34896e-015
lhumerus -22.4321 10.9003 85.8835
lradius 9.42344
lwrist -15.6711
lhand -24.8265 -3.41211
lfingers 7.12502
lthumb 1.67916 26.561
rfemur -17.9878 -0.93108 20.9699
rtibia 24.2398
rfoot -11.7084 -4.86445
rtoes 10.9786
lfemur -18.7829 4.22057 -18.037
ltibia 22.9086
lfoot -9.65822 2.51231
ltoes -2.48045
502
root 0.478803 17.6641 5.35294 7.00268 2.52484 -1.77464
lowerback 0.873302 -0.303201 -0.26549
upperback 2.2088 -0.431562 2.00675
thorax 1.79189 -0.239178 2.20447
lowerneck -15.1057 -0.235154 -1.97414
upperneck 7.53177 -0.0259758 0.960123
head 4.70756 -0.00839986 0.61475
rclavicle -3.97569e-015 -1.03368e-014
rhumerus -21.6992 -20.0273 -80.4985
rradius 20.0439
rwrist 37.4009
rhand -21.078 -26.7547
rfingers 7.12502
rthumb 5.29905 -56.6685
lclavicle -3.97569e-015 -1.03368e-014
lhumerus -22.3001 11.0909 85.7424
lradius 9.51376
lwrist -15.7219
lhand -25.0166 -3.77426
lfingers 7.12502
lthumb 1.49557 26.2002
rfemur -17.9543 -0.960574 20.9678
rtibia 24.1926
rfoot -11.7181 -4.88893
rtoes 10.9859
lfemur -18.7433 4.17554 -18.0362
ltibia 22.826
lfoot -9.64926 2.50538
ltoes -2.4853
503
root 0.475849 17.6658 5.35917 7.02027 2.56208 -1.76541
lowerback 0.82954 -0.301897 -0.283418
upperback 2.18923 -0.429846 2.00763
thorax 1.79643 -0.238543 2.21527
lowerneck -15.1408 -0.23095 -2.01159
upperneck 7.415 -0.0125632 0.966754
head 4.67661 -0.00197287 0.623778
rclavicle -2.73329e-015 1.23246e-014
rhumerus -21.5179 -20.1328 -80.5807
rradius 20.0106
rwrist 37.5288
rhand -21.1182 -26.7295
rfingers 7.12502
rthumb 5.26023 -56.6442
lclavicle -2.73329e-015 1.23246e-014
lhumerus -22.1477 11.2783 85.614
lradius 9.62099
lwrist -15.7513
lhand -25.1976 -4.11438
lfingers 7.12502
lthumb 1.32072 25.8613
rfemur -17.9226 -0.98085 20.9711
rtibia 24.1478
rfoot -11.724 -4.91338
rtoes 10.9827
lfemur -18.7062 4.13933 -18.0299
ltibia 22.7533
lfoot -9.64496 2.50064
ltoes -2.4846
504
root 0.472892 17.6674 5.36497 7.03613 2.59424 -1.75773
lowerback 0.787754 -0.299206 -0.300682
upperback 2.17325 -0.42633 2.00984
thorax 1.80348 -0.237043 2.22708
lowerneck -15.1729 -0.228486 -2.04598
upperneck 7.29086 -0.00167672 0.969244
head 4.64291 0.00308403 0.63079
rclavicle 6.95746e-016 2.46493e-014
rhumerus -21.3244 -20.2567 -80.665
rradius 19.97
rwrist 37.6741
rhand -21.1623 -26.7101
rfingers 7.12502
rthumb 5.21766 -56.6259
lclavicle 6.95746e-016 2.46493e-014
lhumerus -21.9745 11.471 85.4938
lradius 9.7405
lwrist -15.766
lhand -25.2817 -4.32903
lfingers 7.12502
lthumb 1.23949 25.6471
rfemur -17.8933 -0.998632 20.9765
rtibia 24.1063
rfoot -11.7282 -4.93639
rtoes 10.9665
lfemur -18.6714 4.11009 -18.0221
ltibia 22.6888
lfoot -9.64466 2.49516
ltoes -2.48621
505
root 0.470231 17.6687 5.37078 7.04318 2.6122 -1.75136
lowerback 0.75219 -0.291689 -0.314417
upperback 2.16187 -0.416393 2.01175
thorax 1.81148 -0.232305 2.2367
lowerneck -15.202 -0.227486 -2.07073
upperneck 7.16449 0.00654488 0.959959
head 4.60809 0.00636963 0.632351
rclavicle 2.48481e-016 1.43125e-014
rhumerus -21.1304 -20.3741 -80.7556
rradius 19.9377
rwrist 37.803
rhand -21.2055 -26.7048
rfingers 7.12502
rthumb 5.17596 -56.6216
lclavicle 2.48481e-016 1.43125e-014
lhumerus -21.7843 11.6674 85.383
lradius 9.85378
lwrist -15.8051
lhand -25.2732 -4.38365
lfingers 7.12502
lthumb 1.24775 25.5924
rfemur -17.8582 -1.01158 20.9814
rtibia 24.0689
rfoot -11.7344 -4.95242
rtoes 10.9358
lfemur -18.6268 4.08986 -18.0142
ltibia 22.6304
lfoot -9.64879 2.49675
ltoes -2.49693
506
root 0.467657 17.6699 5.37626 7.04738 2.62757 -1.73991
lowerback 0.71938 -0.284297 -0.332628
upperback 2.15317 -0.406615 2.01351
thorax 1.82072 -0.227745 2.24868
lowerneck -15.2397 -0.224307 -2.08343
upperneck 7.0448 0.0171105 0.935041
head 4.5767 0.0101414 0.627319
rclavicle 7.00716e-015 -5.56597e-015
rhumerus -20.9354 -20.4844 -80.8516
rradius 19.9113
rwrist 37.9133
rhand -21.2447 -26.6964
rfingers 7.12502
rthumb 5.13808 -56.6141
lclavicle 7.00716e-015 -5.56597e-015
lhumerus -21.576 11.8718 85.2839
lradius 9.9723
lwrist -15.8393
lhand -25.2252 -4.39965
lfingers 7.12502
lthumb 1.29403 25.5762
rfemur -17.8236 -1.02511 20.9806
rtibia 24.0364
rfoot -11.7417 -4.96723
rtoes 10.8913
lfemur -18.5809 4.07523 -18.0129
ltibia 22.5754
lfoot -9.65351 2.49467
ltoes -2.5065
507
root 0.465189 17.671 5.38139 7.04942 2.6434 -1.72594
lowerback 0.690025 -0.277807 -0.351671
upperback 2.14525 -0.398015 2.01562
thorax 1.82887 -0.22379 2.26152
lowerneck -15.2854 -0.22063 -2.09513
upperneck 6.93829 0.0285406 0.907394
head 4.55068 0.0141713 0.621377
rclavicle -1.93815e-015 3.65764e-014
rhumerus -20.7382 -20.6048 -80.949
rradius 19.8804
rwrist 38.0234
rhand -21.273 -26.6908
rfingers 7.12502
rthumb 5.11075 -56.6091
lclavicle -1.93815e-015 3.65764e-014
lhumerus -21.3605 12.0837 85.1971
lradius 10.1027
lwrist -15.8859
lhand -25.1752 -4.39937
lfingers 7.12502
lthumb 1.34238 25.5762
rfemur -17.7899 -1.04039 20.9768
rtibia 24.0083
rfoot -11.7515 -4.98097
rtoes 10.8531
lfemur -18.5349 4.06303 -18.0149
ltibia 22.5214
lfoot -9.65611 2.48878
ltoes -2.50553
508
root 0.462804 17.672 5.38625 7.04972 2.65926 -1.71129
lowerback 0.662287 -0.272802 -0.370521
upperback 2.13752 -0.391394 2.01886
thorax 1.8364 -0.22083 2.27539
lowerneck -15.3393 -0.215947 -2.10746
upperneck 6.85154 0.0416876 0.878571
head 4.53208 0.0188959 0.615355
rclavicle 2.18663e-015 -1.39149e-014
rhumerus -20.5427 -20.7179 -81.0508
rradius 19.8485
rwrist 38.1188
rhand -21.2944 -26.6929
rfingers 7.12502
rthumb 5.09005 -56.6118
lclavicle 2.18663e-015 -1.39149e-014
lhumerus -21.096 11.7698 85.3316
lradius 10.2251
lwrist -15.4058
lhand -25.2408 -4.45101
lfingers 7.12502
lthumb 1.27897 25.5249
rfemur -17.7571 -1.05603 20.972
rtibia 23.9843
rfoot -11.7627 -4.99579
rtoes 10.818
lfemur -18.4889 4.05413 -18.0183
ltibia 22.4664
lfoot -9.65409 2.47832
ltoes -2.50115
509
root 0.46058 17.673 5.39086 7.05009 2.67523 -1.69335
lowerback 0.635477 -0.269058 -0.390594
upperback 2.12861 -0.386407 2.02168
thorax 1.84226 -0.218686 2.28953
lowerneck -15.4039 -0.210994 -2.12729
upperneck 6.78915 0.0559754 0.858454
head 4.52275 0.0244597 0.613395
rclavicle 2.48481e-016 -2.78299e-015
rhumerus -20.3507 -20.8122 -81.1599
rradius 19.8172
rwrist 38.1904
rhand -21.3045 -26.7049
rfingers 7.12502
rthumb 5.08037 -56.624
lclavicle 2.48481e-016 -2.78299e-015
lhumerus -20.8287 11.4489 85.4753
lradius 10.3492
lwrist -14.941
lhand -25.3402 -4.58722
lfingers 7.12502
lthumb 1.18296 25.3892
rfemur -17.7258 -1.07461 20.9632
rtibia 23.9617
rfoot -11.7731 -5.00815
rtoes 10.7936
lfemur -18.4445 4.04531 -18.0263
ltibia 22.4093
lfoot -9.64661 2.46526
ltoes -2.48279
510
root 0.458565 17.674 5.39526 7.04994 2.69338 -1.67457
lowerback 0.60437 -0.267308 -0.408249
upperback 2.12427 -0.384167 2.02361
thorax 1.85532 -0.217942 2.30135
lowerneck -15.4689 -0.207664 -2.15336
upperneck 6.72971 0.0682216 0.849189
head 4.51443 0.029555 0.615656
rclavicle -4.67144e-015 -1.70955e-014
rhumerus -20.1513 -20.9103 -81.2768
rradius 19.779
rwrist 38.2697
rhand -21.3099 -26.7278
rfingers 7.12502
rthumb 5.07517 -56.647
lclavicle -4.67144e-015 -1.70955e-014
lhumerus -20.5491 11.117 85.6299
lradius 10.4818
lwrist -14.4694
lhand -25.4026 -4.69366
lfingers 7.12502
lthumb 1.12274 25.2831
rfemur -17.6938 -1.09834 20.9528
rtibia 23.9383
rfoot -11.7833 -5.01619
rtoes 10.7878
lfemur -18.4003 4.03531 -18.0364
ltibia 22.35
lfoot -9.63515 2.44883
ltoes -2.46672
